# xmcd CD database file
#
# Track frame offsets:
#	150
#	21731
#	47253
#	68522
#	88244
#	103870
#	120081
#	136374
#	154660
#	171457
#	193598
#	214740
#	233810
#	256411
#	273361
#	286997
#	303848
#
# Disc length: 4178 seconds
#
# Revision: 0
# Processed by: cddbd v1.5.2PL0 Copyright (c) Steve Scherf et al.
# Submitted via: CDex 1.70beta2
#
DISCID=ed105011
DTITLE=Joe Kienemann Trio - Celebrating Life
DYEAR=2015
DGENRE=Jazz
TTITLE0=Celebrating Life
TTITLE1=Song for Selma
TTITLE2=Maura
TTITLE3=Bopping with Sue
TTITLE4=Full Moon Rise
TTITLE5=Celebrating Five
TTITLE6=Giannonno
TTITLE7=Ipanebop
TTITLE8=Sentimentality
TTITLE9=Embracing the Waltz
TTITLE10=Twelve in Thirds
TTITLE11=Faz Um Favor
TTITLE12=Aprillution
TTITLE13=Cheropentakee
TTITLE14=Suddenly the Sun
TTITLE15=Boss-Eyed Bossa
TTITLE16=Luitpold Parker
EXTD=YEAR: 2015
EXTT0=
EXTT1=
EXTT2=
EXTT3=
EXTT4=
EXTT5=
EXTT6=
EXTT7=
EXTT8=
EXTT9=
EXTT10=
EXTT11=
EXTT12=
EXTT13=
EXTT14=
EXTT15=
EXTT16=
PLAYORDER=
